<svg width="637" height="391" viewBox="0 0 637 391" fill="none" xmlns="http://www.w3.org/2000/svg">
    <path d="M306.268 44.6973H330.172L319.714 168.001H315.979L306.268 44.6973Z" fill="#292828" fill-opacity="0.08"/>
    <path d="M330.172 346.791H306.268L315.232 224.258H321.208L330.172 346.791Z" fill="#292828" fill-opacity="0.08"/>
    <path d="M365.486 42.2942L396.423 40.5584L329.193 168.915L322.703 168.915L365.486 42.2942Z" fill="#292828" fill-opacity="0.08"/>
    <path d="M271.171 42.2942L240.234 40.5584L307.464 168.915L313.954 168.915L271.171 42.2942Z" fill="#292828" fill-opacity="0.08"/>
    <path d="M362.91 355.808L393.741 358.977L328.678 220.405L324.196 222.717L362.91 355.808Z" fill="#292828" fill-opacity="0.08"/>
    <path d="M273.746 355.807L242.916 358.977L307.762 221.175L312.244 223.487L273.746 355.807Z" fill="#292828" fill-opacity="0.08"/>
    <path d="M448.756 32.4006L511.77 32.4015L334.686 173.428L330.952 171.115L448.756 32.4006Z" fill="#292828" fill-opacity="0.08"/>
    <path d="M187.898 32.4006L124.884 32.4015L301.753 174.969L305.488 171.115L187.898 32.4006Z" fill="#292828" fill-opacity="0.08"/>
    <path d="M454.301 358.689L517.328 358.506L337.642 215.781L331.666 218.093L454.301 358.689Z" fill="#292828" fill-opacity="0.08"/>
    <path d="M182.356 358.689L119.329 358.506L300.293 215.781L304.028 220.405L182.356 358.689Z" fill="#292828" fill-opacity="0.08"/>
    <path d="M579.023 27.7441L586.493 84.0015L338.434 182.923L333.566 178.495L579.023 27.7441Z" fill="#292828" fill-opacity="0.08"/>
    <path d="M57.6328 27.7441L50.1628 84.0015L298.222 182.923L303.09 178.495L57.6328 27.7441Z" fill="#292828" fill-opacity="0.08"/>
    <path d="M581.439 358.557L588.548 302.25L339.86 205.024L335.02 209.486L581.439 358.557Z" fill="#292828" fill-opacity="0.08"/>
    <path d="M55.2168 358.557L48.108 302.25L296.796 205.024L301.636 209.486L55.2168 358.557Z" fill="#292828" fill-opacity="0.08"/>
    <path d="M626.469 117.139L616.818 173.042L343.618 191.121L341.377 184.956L626.469 117.139Z" fill="#292828" fill-opacity="0.08"/>
    <path d="M10.187 117.139L19.8374 173.042L292.823 190.35L292.823 185.726L10.187 117.139Z" fill="#292828" fill-opacity="0.08"/>
    <path d="M616.207 272.064L607.734 215.959L342.6 194.535L339.166 200.217L616.207 272.064Z" fill="#292828" fill-opacity="0.08"/>
    <path d="M20.4487 272.064L28.9214 215.959L294.055 194.535L297.489 200.217L20.4487 272.064Z" fill="#292828" fill-opacity="0.08"/>
    <ellipse cx="318.22" cy="195.746" rx="28.3859" ry="29.2846" fill="#6E9FFD"/>
</svg>
