<svg width="25" height="25" viewBox="0 0 25 25" fill="none" xmlns="http://www.w3.org/2000/svg">
    <path d="M2.08327 12.4999H4.16661C4.16413 11.4048 4.3779 10.32 4.79565 9.30772C5.2134 8.29543 5.82691 7.37559 6.60098 6.60096C7.3591 5.84032 8.25861 5.23522 9.2489 4.81971C11.29 3.97172 13.582 3.95639 15.6343 4.777C15.6544 5.45145 15.9367 6.09148 16.4212 6.56105C16.9058 7.03061 17.5544 7.2927 18.2291 7.29158C19.6729 7.29158 20.8333 6.13117 20.8333 4.68742C20.8333 3.24367 19.6729 2.08325 18.2291 2.08325C17.5114 2.08325 16.8624 2.37075 16.3926 2.83846C13.8604 1.82492 10.952 1.84054 8.43952 2.89992C7.20112 3.42044 6.076 4.17724 5.12702 5.12804C4.1758 6.07648 3.41861 7.20129 2.89786 8.4395C2.35744 9.72486 2.08045 11.1056 2.08327 12.4999ZM20.1801 15.752C19.7624 16.7437 19.1624 17.6353 18.3989 18.3989C17.6354 19.1624 16.7437 19.7624 15.751 20.1801C13.7098 21.0281 11.4179 21.0434 9.36556 20.2228C9.3455 19.5484 9.06319 18.9084 8.57864 18.4388C8.09409 17.9692 7.44552 17.7071 6.77077 17.7083C5.32702 17.7083 4.16661 18.8687 4.16661 20.3124C4.16661 21.7562 5.32702 22.9166 6.77077 22.9166C7.48848 22.9166 8.13744 22.6291 8.60723 22.1614C9.84422 22.6609 11.1659 22.9173 12.4999 22.9166C14.5484 22.9205 16.5524 22.3194 18.2605 21.1886C19.9686 20.0578 21.3046 18.4477 22.101 16.5603C22.6421 15.2752 22.9195 13.8944 22.9166 12.4999H20.8333C20.8359 13.6168 20.6138 14.7228 20.1801 15.752Z" fill="white"/>
    <path d="M12.5 7.77295C9.89378 7.77295 7.77295 9.89378 7.77295 12.5C7.77295 15.1063 9.89378 17.2271 12.5 17.2271C15.1063 17.2271 17.2271 15.1063 17.2271 12.5C17.2271 9.89378 15.1063 7.77295 12.5 7.77295ZM12.5 15.1438C11.0427 15.1438 9.85628 13.9573 9.85628 12.5C9.85628 11.0427 11.0427 9.85628 12.5 9.85628C13.9573 9.85628 15.1438 11.0427 15.1438 12.5C15.1438 13.9573 13.9573 15.1438 12.5 15.1438Z" fill="white"/>
</svg>
