<svg width="21" height="21" viewBox="0 0 21 21" fill="none" xmlns="http://www.w3.org/2000/svg">
    <g clip-path="url(#clip0_335_3768)">
        <path fill-rule="evenodd" clip-rule="evenodd" d="M7.88126 0.849416C9.84785 0.315445 11.9306 0.395028 13.8507 1.07751C15.7708 1.75999 17.4366 3.01279 18.625 4.66817V2.68692C18.625 2.43828 18.7238 2.19982 18.8996 2.024C19.0754 1.84819 19.3139 1.74942 19.5625 1.74942C19.8112 1.74942 20.0496 1.84819 20.2254 2.024C20.4012 2.19982 20.5 2.43828 20.5 2.68692V7.99942H15.1875C14.9389 7.99942 14.7004 7.90064 14.5246 7.72483C14.3488 7.54901 14.25 7.31056 14.25 7.06192C14.25 6.81328 14.3488 6.57482 14.5246 6.399C14.7004 6.22319 14.9389 6.12442 15.1875 6.12442H17.3463C16.3671 4.59253 14.9024 3.43331 13.1866 2.83221C11.4707 2.2311 9.60287 2.22286 7.88179 2.80878C6.1607 3.39471 4.68586 4.54095 3.69321 6.06414C2.70055 7.58732 2.24745 9.39943 2.40639 11.2106C2.56532 13.0217 3.32711 14.7272 4.56988 16.0542C5.81265 17.3812 7.46458 18.2531 9.26142 18.5303C11.0582 18.8075 12.8961 18.474 14.4811 17.5833C16.066 16.6925 17.3064 15.2959 18.0038 13.6169C18.049 13.5005 18.1171 13.3943 18.204 13.3046C18.2909 13.2149 18.3948 13.1434 18.5097 13.0944C18.6246 13.0454 18.7481 13.0198 18.873 13.0192C18.9979 13.0186 19.1216 13.043 19.237 13.0909C19.3523 13.1388 19.457 13.2092 19.5447 13.2981C19.6324 13.387 19.7015 13.4925 19.7479 13.6085C19.7943 13.7244 19.8171 13.8485 19.8149 13.9734C19.8126 14.0982 19.7855 14.2214 19.735 14.3357C19.0835 15.9038 18.0434 17.2803 16.7128 18.3352C15.3821 19.3902 13.8047 20.0889 12.1293 20.3655C10.4539 20.6422 8.73558 20.4876 7.13642 19.9164C5.53726 19.3452 4.10991 18.3761 2.9889 17.1006C1.86789 15.8251 1.09016 14.2851 0.729013 12.6259C0.367868 10.9666 0.435207 9.24269 0.924682 7.61665C1.41416 5.99062 2.30965 4.516 3.52673 3.33182C4.74382 2.14764 6.24242 1.29415 7.88126 0.849416Z" fill="white"/>
    </g>
    <defs>
        <clipPath id="clip0_335_3768">
            <rect width="20" height="20" fill="white" transform="translate(0.5 0.5)"/>
        </clipPath>
    </defs>
</svg>
