<svg width="22" height="22" viewBox="0 0 22 22" fill="none" xmlns="http://www.w3.org/2000/svg">
    <path fill-rule="evenodd" clip-rule="evenodd" d="M6.64587 5.50065C6.64587 4.34585 7.10462 3.23836 7.92118 2.42179C8.73774 1.60523 9.84524 1.14648 11 1.14648C12.1548 1.14648 13.2623 1.60523 14.0789 2.42179C14.8955 3.23836 15.3542 4.34585 15.3542 5.50065C15.3542 6.65545 14.8955 7.76295 14.0789 8.57951C13.2623 9.39608 12.1548 9.85482 11 9.85482C9.84524 9.85482 8.73774 9.39608 7.92118 8.57951C7.10462 7.76295 6.64587 6.65545 6.64587 5.50065ZM11 2.52148C10.2099 2.52148 9.45215 2.83536 8.89345 3.39406C8.33475 3.95276 8.02087 4.71053 8.02087 5.50065C8.02087 6.29078 8.33475 7.04854 8.89345 7.60724C9.45215 8.16594 10.2099 8.47982 11 8.47982C11.7902 8.47982 12.5479 8.16594 13.1066 7.60724C13.6653 7.04854 13.9792 6.29078 13.9792 5.50065C13.9792 4.71053 13.6653 3.95276 13.1066 3.39406C12.5479 2.83536 11.7902 2.52148 11 2.52148Z" fill="#566DF6"/>
    <path d="M16.5 12.7578C16.6823 12.7578 16.8572 12.8302 16.9861 12.9592C17.1151 13.0881 17.1875 13.263 17.1875 13.4453V13.9797H17.7219C17.9042 13.9797 18.0791 14.0522 18.208 14.1811C18.337 14.31 18.4094 14.4849 18.4094 14.6672C18.4094 14.8496 18.337 15.0244 18.208 15.1534C18.0791 15.2823 17.9042 15.3547 17.7219 15.3547H17.1875V15.8891C17.1875 16.0715 17.1151 16.2464 16.9861 16.3753C16.8572 16.5042 16.6823 16.5766 16.5 16.5766C16.3177 16.5766 16.1428 16.5042 16.0139 16.3753C15.8849 16.2464 15.8125 16.0715 15.8125 15.8891V15.3547H15.2781C15.0957 15.3547 14.9209 15.2823 14.7919 15.1534C14.663 15.0244 14.5906 14.8496 14.5906 14.6672C14.5906 14.4849 14.663 14.31 14.7919 14.1811C14.9209 14.0522 15.0957 13.9797 15.2781 13.9797H15.8125V13.4453C15.8125 13.263 15.8849 13.0881 16.0139 12.9592C16.1428 12.8302 16.3177 12.7578 16.5 12.7578Z" fill="#566DF6"/>
    <path fill-rule="evenodd" clip-rule="evenodd" d="M13.5438 11.4702C12.7056 11.3082 11.8537 11.2275 11 11.2291C8.87976 11.2291 6.92543 11.7113 5.47801 12.5253C4.05168 13.3283 2.97918 14.5438 2.97918 16.0416V16.1351C2.97826 17.2003 2.97734 18.5368 4.14976 19.4919C4.72634 19.9613 5.53393 20.2958 6.62476 20.5158C7.71743 20.7377 9.14284 20.8541 11 20.8541C13.629 20.8541 15.4092 20.6213 16.61 20.1748C17.6908 19.7715 18.3306 19.183 18.6725 18.4405C19.2032 18.1345 19.6633 17.7199 20.0228 17.2239C20.3824 16.7278 20.6331 16.1615 20.7588 15.5619C20.8845 14.9623 20.8823 14.343 20.7522 13.7443C20.6222 13.1457 20.3673 12.5812 20.0042 12.0878C19.6411 11.5944 19.1779 11.1832 18.645 10.881C18.1121 10.5788 17.5214 10.3925 16.9116 10.3342C16.3018 10.2759 15.6865 10.347 15.106 10.5427C14.5255 10.7385 13.9938 11.0545 13.5438 11.4702ZM6.15084 13.7243C4.92251 14.4145 4.35418 15.2615 4.35418 16.0416C4.35418 17.2406 4.39084 17.9153 5.01693 18.4249C5.35609 18.7018 5.92443 18.9722 6.89609 19.1683C7.86501 19.3645 9.18959 19.4791 10.9991 19.4791C13.3623 19.4791 14.8858 19.2838 15.8675 18.9749C15.1853 18.8748 14.5366 18.6142 13.9748 18.2145C13.413 17.8147 12.9541 17.2873 12.6359 16.6756C12.3178 16.0638 12.1494 15.3853 12.1447 14.6958C12.1399 14.0063 12.299 13.3255 12.6088 12.7095C12.0754 12.6389 11.538 12.6037 11 12.6041C9.07043 12.6041 7.35718 13.0459 6.15084 13.7243ZM13.5218 14.6666C13.5218 13.8765 13.8356 13.1187 14.3943 12.56C14.953 12.0013 15.7108 11.6874 16.5009 11.6874C17.2911 11.6874 18.0488 12.0013 18.6075 12.56C19.1662 13.1187 19.4801 13.8765 19.4801 14.6666C19.4801 15.4567 19.1662 16.2145 18.6075 16.7732C18.0488 17.3319 17.2911 17.6458 16.5009 17.6458C15.7108 17.6458 14.953 17.3319 14.3943 16.7732C13.8356 16.2145 13.5218 15.4567 13.5218 14.6666Z" fill="#566DF6"/>
</svg>
