<svg width="9" height="17" viewBox="0 0 9 17" fill="none" xmlns="http://www.w3.org/2000/svg">
    <path d="M0.00602452 15.9374C0.00582391 15.798 0.0352513 15.6598 0.0926089 15.531C0.149967 15.4022 0.234119 15.2853 0.340211 15.1869L6.1672 9.75405C6.34357 9.58967 6.48348 9.39451 6.57893 9.17972C6.67439 8.96493 6.72352 8.73471 6.72352 8.50221C6.72352 8.26972 6.67439 8.0395 6.57893 7.82471C6.48348 7.60992 6.34357 7.41476 6.1672 7.25038L0.347805 1.82601C0.238994 1.72804 0.152201 1.61085 0.0924934 1.48127C0.0327854 1.35169 0.00135752 1.21233 4.30155e-05 1.0713C-0.00127149 0.930283 0.0275537 0.790428 0.0848373 0.659903C0.142121 0.529379 0.226715 0.410797 0.333684 0.311075C0.440654 0.211355 0.567855 0.132492 0.707867 0.0790901C0.84788 0.0256882 0.997898 -0.00118446 1.14917 4.00543e-05C1.30044 0.00126648 1.44994 0.0305653 1.58893 0.0862274C1.72793 0.14189 1.85364 0.222799 1.95873 0.324238L7.77813 5.74861C8.56056 6.47938 9 7.46971 9 8.50221C9 9.53472 8.56056 10.525 7.77813 11.2558L1.95114 16.6887C1.79181 16.8373 1.58876 16.9385 1.3677 16.9796C1.14663 17.0206 0.917483 16.9996 0.709245 16.9191C0.501007 16.8387 0.323039 16.7025 0.197861 16.5278C0.0726838 16.353 0.00592235 16.1476 0.00602452 15.9374Z" fill="#374957"/>
</svg>
