<svg width="9" height="9" viewBox="0 0 9 9" fill="none" xmlns="http://www.w3.org/2000/svg">
    <path d="M8.62494 9L4.49994 4.89488L0.374939 9V1.125C0.374939 0.826631 0.493465 0.540483 0.704444 0.329505C0.915422 0.118526 1.20157 0 1.49994 0L7.49994 0C7.79831 0 8.08446 0.118526 8.29543 0.329505C8.50641 0.540483 8.62494 0.826631 8.62494 1.125V9ZM4.49994 3.837L7.87494 7.19438V1.125C7.87494 1.02554 7.83543 0.930161 7.7651 0.859835C7.69478 0.789509 7.5994 0.75 7.49994 0.75H1.49994C1.40048 0.75 1.3051 0.789509 1.23477 0.859835C1.16445 0.930161 1.12494 1.02554 1.12494 1.125V7.19438L4.49994 3.837Z" fill="#374957"/>
</svg>
