<svg width="14" height="14" viewBox="0 0 14 14" fill="none" xmlns="http://www.w3.org/2000/svg">
    <path d="M1.16669 11.0832C1.16669 12.0748 1.92502 12.8332 2.91669 12.8332H11.0834C12.075 12.8332 12.8334 12.0748 12.8334 11.0832V6.4165H1.16669V11.0832ZM11.0834 2.33317H9.91669V1.74984C9.91669 1.39984 9.68335 1.1665 9.33335 1.1665C8.98335 1.1665 8.75002 1.39984 8.75002 1.74984V2.33317H5.25002V1.74984C5.25002 1.39984 5.01669 1.1665 4.66669 1.1665C4.31669 1.1665 4.08335 1.39984 4.08335 1.74984V2.33317H2.91669C1.92502 2.33317 1.16669 3.0915 1.16669 4.08317V5.24984H12.8334V4.08317C12.8334 3.0915 12.075 2.33317 11.0834 2.33317Z" fill="#4C4C4C"/>
</svg>
