<svg width="25" height="25" viewBox="0 0 25 25" fill="none" xmlns="http://www.w3.org/2000/svg">
    <path d="M24.8891 9.37308C24.7555 8.94604 24.5026 8.56965 24.1623 8.29156C23.8221 8.01346 23.4099 7.84616 22.9778 7.81083L16.8807 7.30087L14.5277 1.40787C14.3623 0.991374 14.0812 0.635174 13.7199 0.384504C13.3587 0.133833 12.9337 0 12.4989 0C12.0641 0 11.6391 0.133833 11.2779 0.384504C10.9167 0.635174 10.6355 0.991374 10.4702 1.40787L8.11926 7.30199L2.02221 7.81083C1.58933 7.84781 1.17666 8.01647 0.836053 8.29563C0.49545 8.57479 0.24211 8.95199 0.107869 9.37983C-0.0263711 9.80766 -0.0355229 10.2671 0.081564 10.7003C0.198651 11.1335 0.436753 11.5212 0.765948 11.8146L5.41819 15.9702L3.99602 22.1857C3.89229 22.6239 3.91683 23.0842 4.06651 23.5079C4.21619 23.9317 4.48423 24.2997 4.83652 24.5651C5.18881 24.8305 5.60939 24.9813 6.04471 24.9984C6.48004 25.0154 6.91041 24.8979 7.28103 24.6607L12.4989 21.3343L17.7168 24.6607C18.0873 24.8963 18.517 25.0127 18.9514 24.9952C19.3858 24.9777 19.8055 24.8271 20.1572 24.5624C20.5089 24.2978 20.7769 23.931 20.9273 23.5085C21.0776 23.086 21.1036 22.6268 21.0018 22.1891L19.5796 15.9736L24.2319 11.818C24.563 11.5238 24.8023 11.1343 24.9193 10.699C25.0364 10.2637 25.0258 9.80218 24.8891 9.37308ZM17.2966 14.4727C17.1172 14.6329 16.9838 14.841 16.9108 15.0744C16.8378 15.3078 16.8282 15.5574 16.8829 15.7961L18.2717 21.871L13.1766 18.626C12.9728 18.4961 12.7382 18.4273 12.4989 18.4273C12.2596 18.4273 12.025 18.4961 11.8212 18.626L6.72617 21.871L8.11495 15.8006C8.16965 15.5619 8.15999 15.3122 8.08703 15.0789C8.01407 14.8455 7.88061 14.6373 7.70122 14.4771L3.14702 10.4042L9.11586 9.90536C9.35339 9.88559 9.58102 9.79822 9.77362 9.6529C9.96622 9.50757 10.1163 9.30994 10.2073 9.08183L12.4989 3.33501L14.7906 9.08183C14.8815 9.30994 15.0316 9.50757 15.2242 9.6529C15.4168 9.79822 15.6445 9.88559 15.882 9.90536L21.8508 10.4042L17.2966 14.4727Z" fill="white"/>
</svg>
