<svg width="9" height="9" viewBox="0 0 9 9" fill="none" xmlns="http://www.w3.org/2000/svg">
    <path d="M9 6V9H6C5.47391 8.99946 4.95722 8.86059 4.50174 8.59731C4.04627 8.33403 3.66804 7.95561 3.405 7.5C3.6877 7.49798 3.96944 7.46681 4.24575 7.407C4.45618 7.67012 4.72312 7.88251 5.0268 8.02844C5.33047 8.17437 5.66308 8.25009 6 8.25H8.25V6C8.24991 5.66296 8.17395 5.33027 8.02776 5.02659C7.88157 4.72291 7.66889 4.45603 7.4055 4.24575C7.46582 3.96949 7.49748 3.68775 7.5 3.405C7.95561 3.66804 8.33403 4.04627 8.59731 4.50174C8.86059 4.95722 8.99946 5.47391 9 6ZM6.75 3.375C6.75 2.47989 6.39442 1.62145 5.76149 0.988515C5.12855 0.355579 4.27011 0 3.375 0C2.47989 0 1.62145 0.355579 0.988515 0.988515C0.355579 1.62145 0 2.47989 0 3.375L0 6.75H3.375C4.2698 6.74901 5.12767 6.39311 5.76039 5.76039C6.39311 5.12767 6.74901 4.2698 6.75 3.375ZM0.75 3.375C0.75 2.85582 0.903954 2.34831 1.19239 1.91663C1.48083 1.48495 1.8908 1.1485 2.37046 0.949816C2.85011 0.751136 3.37791 0.699152 3.88711 0.800439C4.39631 0.901725 4.86404 1.15173 5.23116 1.51884C5.59827 1.88596 5.84828 2.35369 5.94956 2.86289C6.05085 3.37209 5.99886 3.89989 5.80018 4.37954C5.6015 4.8592 5.26505 5.26917 4.83337 5.55761C4.40169 5.84605 3.89418 6 3.375 6H0.75V3.375Z" fill="#374957"/>
</svg>
