<svg width="12" height="9" viewBox="0 0 12 9" fill="none" xmlns="http://www.w3.org/2000/svg">
    <path d="M11.9107 4.0906C11.4717 3.13058 9.75019 0 6.00009 0C2.24999 0 0.528449 3.13058 0.0894379 4.0906C0.0305055 4.21926 0 4.35911 0 4.50062C0 4.64213 0.0305055 4.78197 0.0894379 4.91063C0.528449 5.86965 2.24999 9.00023 6.00009 9.00023C9.75019 9.00023 11.4717 5.86965 11.9107 4.90963C11.9696 4.78112 12 4.64144 12 4.50012C12 4.35879 11.9696 4.21911 11.9107 4.0906ZM6.00009 8.00021C2.84651 8.00021 1.37497 5.31714 0.999961 4.50562C1.37497 3.68309 2.84651 1.00003 6.00009 1.00003C9.14617 1.00003 10.6182 3.67159 11.0002 4.50012C10.6182 5.32864 9.14617 8.00021 6.00009 8.00021Z" fill="#374957"/>
    <path d="M6 2.00024C5.50554 2.00024 5.02218 2.14687 4.61104 2.42158C4.19991 2.69629 3.87947 3.08675 3.69025 3.54358C3.50102 4.0004 3.45151 4.50308 3.54798 4.98805C3.64444 5.47301 3.88255 5.91848 4.23219 6.26812C4.58183 6.61776 5.0273 6.85587 5.51227 6.95233C5.99723 7.0488 6.49991 6.99929 6.95674 6.81007C7.41356 6.62084 7.80402 6.3004 8.07873 5.88927C8.35344 5.47814 8.50007 4.99477 8.50007 4.50031C8.49927 3.83749 8.23562 3.20205 7.76694 2.73337C7.29826 2.26469 6.66282 2.00104 6 2.00024ZM6 6.00035C5.70332 6.00035 5.41331 5.91237 5.16663 5.74755C4.91995 5.58272 4.72768 5.34844 4.61415 5.07435C4.50061 4.80025 4.47091 4.49864 4.52879 4.20767C4.58667 3.91669 4.72953 3.64941 4.93932 3.43962C5.1491 3.22984 5.41638 3.08697 5.70736 3.02909C5.99834 2.97121 6.29995 3.00092 6.57404 3.11445C6.84814 3.22799 7.08241 3.42025 7.24724 3.66693C7.41207 3.91361 7.50004 4.20363 7.50004 4.50031C7.50004 4.89814 7.342 5.27968 7.06069 5.561C6.77938 5.84231 6.39784 6.00035 6 6.00035Z" fill="#374957"/>
</svg>
