<svg width="20" height="21" viewBox="0 0 20 21" fill="none" xmlns="http://www.w3.org/2000/svg">
    <g clip-path="url(#clip0_344_4224)">
        <path d="M14.3359 11.623C13.9974 11.903 13.7077 12.2155 13.4668 12.5605C12.9264 12.2871 12.3633 12.0853 11.7773 11.9551C11.1914 11.8249 10.5924 11.7565 9.98047 11.75C9.27734 11.75 8.60677 11.8379 7.96875 12.0137C7.33073 12.1895 6.73177 12.4368 6.17188 12.7559C5.61198 13.0749 5.11068 13.4622 4.66797 13.918C4.22526 14.3737 3.83789 14.8783 3.50586 15.4316C3.17383 15.985 2.92643 16.5872 2.76367 17.2383C2.60091 17.8893 2.51302 18.5599 2.5 19.25H1.25C1.25 18.2995 1.38997 17.3848 1.66992 16.5059C1.94987 15.627 2.35352 14.8229 2.88086 14.0938C3.4082 13.3646 4.03646 12.7266 4.76562 12.1797C5.49479 11.6328 6.32161 11.2129 7.24609 10.9199C6.89453 10.6855 6.58203 10.4154 6.30859 10.1094C6.03516 9.80339 5.80078 9.47135 5.60547 9.11328C5.41016 8.75521 5.26042 8.3776 5.15625 7.98047C5.05208 7.58333 5 7.17318 5 6.75C5 6.0599 5.13021 5.41211 5.39062 4.80664C5.65104 4.20117 6.00911 3.67383 6.46484 3.22461C6.92057 2.77539 7.45117 2.41732 8.05664 2.15039C8.66211 1.88346 9.3099 1.75 10 1.75C10.6901 1.75 11.3379 1.88021 11.9434 2.14062C12.5488 2.40104 13.0762 2.75911 13.5254 3.21484C13.9746 3.67057 14.3327 4.20117 14.5996 4.80664C14.8665 5.41211 15 6.0599 15 6.75C15 7.17318 14.9479 7.58333 14.8438 7.98047C14.7396 8.3776 14.5931 8.75846 14.4043 9.12305C14.2155 9.48763 13.9779 9.81966 13.6914 10.1191C13.4049 10.4186 13.0892 10.6888 12.7441 10.9297C13.0241 11.0208 13.2943 11.1217 13.5547 11.2324C13.8151 11.3431 14.0755 11.4733 14.3359 11.623ZM6.25 6.75C6.25 7.27083 6.34766 7.75586 6.54297 8.20508C6.73828 8.6543 7.00521 9.05143 7.34375 9.39648C7.68229 9.74154 8.07943 10.0117 8.53516 10.207C8.99089 10.4023 9.47917 10.5 10 10.5C10.5143 10.5 10.9993 10.4023 11.4551 10.207C11.9108 10.0117 12.3079 9.74479 12.6465 9.40625C12.985 9.06771 13.2552 8.67057 13.457 8.21484C13.6589 7.75911 13.7565 7.27083 13.75 6.75C13.75 6.23568 13.6523 5.75065 13.457 5.29492C13.2617 4.83919 12.9948 4.44206 12.6562 4.10352C12.3177 3.76497 11.9173 3.49479 11.4551 3.29297C10.9928 3.09115 10.5078 2.99349 10 3C9.47917 3 8.99414 3.09766 8.54492 3.29297C8.0957 3.48828 7.69857 3.75521 7.35352 4.09375C7.00846 4.43229 6.73828 4.83268 6.54297 5.29492C6.34766 5.75716 6.25 6.24219 6.25 6.75ZM16.8945 11.7402C17.3242 11.7402 17.7311 11.8216 18.1152 11.9844C18.4993 12.1471 18.8314 12.3717 19.1113 12.6582C19.3913 12.9447 19.6159 13.2767 19.7852 13.6543C19.9544 14.0319 20.0391 14.4388 20.0391 14.875C20.0391 15.3047 19.9577 15.7083 19.7949 16.0859C19.6322 16.4635 19.4076 16.7956 19.1211 17.082C18.8346 17.3685 18.4993 17.5931 18.1152 17.7559C17.7311 17.9186 17.3242 18.0033 16.8945 18.0098C16.263 18.0098 15.6868 17.834 15.166 17.4824L12.3145 20.334C12.1908 20.4577 12.0443 20.5195 11.875 20.5195C11.7057 20.5195 11.5592 20.4577 11.4355 20.334C11.3118 20.2103 11.25 20.0638 11.25 19.8945C11.25 19.7253 11.3118 19.5788 11.4355 19.4551L14.2871 16.6035C13.9355 16.0827 13.7598 15.5065 13.7598 14.875C13.7598 14.4453 13.8411 14.0417 14.0039 13.6641C14.1667 13.2865 14.3913 12.9544 14.6777 12.668C14.9642 12.3815 15.2962 12.1569 15.6738 11.9941C16.0514 11.8314 16.4583 11.7467 16.8945 11.7402ZM16.8945 16.7598C17.1549 16.7598 17.3991 16.7109 17.627 16.6133C17.8548 16.5156 18.0534 16.3822 18.2227 16.2129C18.3919 16.0436 18.5286 15.8418 18.6328 15.6074C18.737 15.373 18.7891 15.1289 18.7891 14.875C18.7891 14.6146 18.7402 14.3704 18.6426 14.1426C18.5449 13.9147 18.4082 13.7161 18.2324 13.5469C18.0566 13.3776 17.8581 13.2409 17.6367 13.1367C17.4154 13.0326 17.168 12.9837 16.8945 12.9902C16.6341 12.9902 16.39 13.0391 16.1621 13.1367C15.9342 13.2344 15.7357 13.3711 15.5664 13.5469C15.3971 13.7227 15.2604 13.9212 15.1562 14.1426C15.0521 14.3639 15.0033 14.6081 15.0098 14.875C15.0098 15.1354 15.0586 15.3796 15.1562 15.6074C15.2539 15.8353 15.3874 16.0339 15.5566 16.2031C15.7259 16.3724 15.9277 16.5091 16.1621 16.6133C16.3965 16.7174 16.6406 16.7663 16.8945 16.7598Z" fill="white"/>
    </g>
    <defs>
        <clipPath id="clip0_344_4224">
            <rect width="20" height="20" fill="white" transform="translate(0 0.5)"/>
        </clipPath>
    </defs>
</svg>
