<svg width="20" height="19" viewBox="0 0 20 19" fill="none" xmlns="http://www.w3.org/2000/svg">
    <g clip-path="url(#clip0_11_1020)">
        <path d="M7.11881 0.624927C5.22042 1.2835 3.58324 2.53349 2.44777 4.19129C1.31229 5.84909 0.738362 7.82733 0.810281 9.83542C0.882201 11.8435 1.59618 13.7756 2.84734 15.348C4.0985 16.9203 5.8209 18.0499 7.76155 18.571C9.33487 18.977 10.9832 18.9948 12.565 18.623C13.9979 18.3011 15.3226 17.6127 16.4095 16.625C17.5407 15.5657 18.3618 14.2181 18.7845 12.727C19.244 11.1056 19.3257 9.40045 19.0235 7.7425H10.1885V11.4074H15.3051C15.2029 11.992 14.9837 12.5498 14.6608 13.0477C14.3379 13.5456 13.9179 13.9732 13.4259 14.3049C12.8011 14.7182 12.0968 14.9963 11.3582 15.1213C10.6174 15.2591 9.85757 15.2591 9.11678 15.1213C8.36597 14.9661 7.65571 14.6562 7.03123 14.2114C6.02802 13.5013 5.27474 12.4924 4.87889 11.3288C4.47635 10.1433 4.47635 8.85817 4.87889 7.67274C5.16066 6.84181 5.62647 6.08525 6.24155 5.45954C6.94542 4.73033 7.83655 4.20909 8.81717 3.95301C9.79778 3.69692 10.83 3.71589 11.8005 4.00782C12.5587 4.24055 13.252 4.64719 13.8252 5.19532C14.4021 4.62136 14.9781 4.04592 15.553 3.46899C15.8499 3.15875 16.1735 2.86336 16.4659 2.54571C15.591 1.73149 14.564 1.09793 13.4437 0.681333C11.4038 -0.0593853 9.17167 -0.0792914 7.11881 0.624927Z" fill="white"/>
        <path d="M7.11881 0.624916C9.1715 -0.079781 11.4036 -0.0603989 13.4437 0.679838C14.5642 1.09927 15.5907 1.73588 16.4644 2.55312C16.1676 2.87078 15.8544 3.16765 15.5515 3.4764C14.9756 4.05135 14.4002 4.62432 13.8252 5.19531C13.252 4.64718 12.5587 4.24054 11.8005 4.00781C10.8303 3.71485 9.79813 3.69479 8.81726 3.94983C7.83639 4.20487 6.94471 4.72515 6.24006 5.45359C5.62498 6.0793 5.15918 6.83586 4.8774 7.66679L1.80029 5.28437C2.90171 3.1002 4.80875 1.42948 7.11881 0.624916Z" fill="#E33629"/>
        <path d="M0.983924 7.64453C1.14931 6.82485 1.4239 6.03106 1.80033 5.28438L4.87744 7.67274C4.4749 8.85817 4.4749 10.1433 4.87744 11.3288C3.85223 12.1204 2.82653 12.916 1.80033 13.7156C0.857976 11.8398 0.570574 9.70262 0.983924 7.64453Z" fill="#F8BD00"/>
        <path d="M10.1885 7.74101H19.0235C19.3257 9.39896 19.244 11.1041 18.7845 12.7255C18.3618 14.2166 17.5408 15.5642 16.4095 16.6235C15.4165 15.8487 14.419 15.0798 13.4259 14.3049C13.9183 13.9728 14.3385 13.5448 14.6614 13.0464C14.9843 12.548 15.2033 11.9895 15.3052 11.4045H10.1885C10.187 10.1843 10.1885 8.96265 10.1885 7.74101Z" fill="#587DBD"/>
        <path d="M1.79883 13.7156C2.82503 12.924 3.85073 12.1283 4.87594 11.3288C5.27257 12.4928 6.02693 13.5017 7.03125 14.2114C7.65767 14.6541 8.36946 14.9615 9.12125 15.1139C9.86204 15.2517 10.6219 15.2517 11.3627 15.1139C12.1013 14.9889 12.8056 14.7108 13.4304 14.2975C14.4234 15.0723 15.4209 15.8413 16.414 16.6161C15.3273 17.6043 14.0025 18.2933 12.5695 18.6155C10.9877 18.9874 9.33934 18.9696 7.76602 18.5636C6.52167 18.2313 5.35936 17.6456 4.35195 16.8432C3.28567 15.9966 2.41478 14.9298 1.79883 13.7156Z" fill="#319F43"/>
    </g>
    <defs>
        <clipPath id="clip0_11_1020">
            <rect width="19" height="19" fill="white" transform="translate(0.5)"/>
        </clipPath>
    </defs>
</svg>
