<svg width="34" height="34" viewBox="0 0 34 34" fill="none" xmlns="http://www.w3.org/2000/svg">
    <path d="M2 16.9792C2 9.91846 2 6.38653 4.19326 4.19326C6.38653 2 9.91688 2 16.9792 2C24.0399 2 27.5718 2 29.7651 4.19326C31.9583 6.38653 31.9583 9.91688 31.9583 16.9792C31.9583 24.0399 31.9583 27.5718 29.7651 29.7651C27.5718 31.9583 24.0414 31.9583 16.9792 31.9583C9.91846 31.9583 6.38653 31.9583 4.19326 29.7651C2 27.5718 2 24.0414 2 16.9792Z" stroke="#566DF6" stroke-width="3" stroke-linecap="round" stroke-linejoin="round"/>
    <path d="M6.73026 17.7676L7.47921 17.2693C8.22502 16.7711 8.59871 16.5219 8.95821 16.6323C9.31613 16.7442 9.48327 17.1605 9.81754 17.9946L12.2489 24.0746L15.5412 14.1962C16.2349 12.1149 16.5818 11.0742 17.408 10.4798C18.2343 9.88537 19.3317 9.88379 21.5249 9.88379H27.2281M24.8629 16.9792L22.4978 19.3443M22.4978 19.3443L20.1327 21.7094M22.4978 19.3443L24.8629 21.7094M22.4978 19.3443L20.1327 16.9792" stroke="#566DF6" stroke-width="3" stroke-linecap="round" stroke-linejoin="round"/>
</svg>
