<svg width="25" height="25" viewBox="0 0 25 25" fill="none" xmlns="http://www.w3.org/2000/svg">
    <path d="M12.5 24C18.8513 24 24 18.8513 24 12.5C24 6.14873 18.8513 1 12.5 1C6.14873 1 1 6.14873 1 12.5C1 18.8513 6.14873 24 12.5 24Z" stroke="white" stroke-width="2" stroke-linecap="round" stroke-linejoin="round"/>
    <path d="M17.6109 2.27734C17.6109 2.95512 17.3416 3.60513 16.8624 4.08439C16.3831 4.56365 15.7331 4.8329 15.0553 4.8329H14.4165C13.9081 4.8329 13.4206 5.03483 13.0612 5.39428C12.7017 5.75372 12.4998 6.24123 12.4998 6.74957V7.38845C12.4998 7.72734 12.3652 8.05235 12.1255 8.29198C11.8859 8.53161 11.5609 8.66623 11.222 8.66623C10.8831 8.66623 10.5581 8.80085 10.3185 9.04048C10.0789 9.28011 9.94423 9.60512 9.94423 9.94401V11.2218C9.94423 11.8996 10.2135 12.5496 10.6927 13.0288C11.172 13.5081 11.822 13.7773 12.4998 13.7773H15.0553C15.7331 13.7773 16.3831 14.0466 16.8624 14.5258C17.3416 15.0051 17.6109 15.6551 17.6109 16.3329C17.6109 17.0107 17.8801 17.6607 18.3594 18.1399C18.8387 18.6192 19.4887 18.8885 20.1665 18.8885H21.4442M11.222 23.9996V20.8051C11.222 19.7471 10.3467 18.8885 9.28873 18.8885C8.24862 18.8885 7.38867 18.0451 7.38867 17.005C7.38867 16.5706 7.23789 16.1489 6.96317 15.8128L1.63867 9.30512" stroke="white" stroke-width="2" stroke-linecap="round" stroke-linejoin="round"/>
</svg>
