<svg width="14" height="16" viewBox="0 0 14 16" fill="none" xmlns="http://www.w3.org/2000/svg">
    <g clip-path="url(#clip0_13_732)">
        <path d="M13.6258 10.5913L12.2171 9.1826V6.7826C12.2154 5.487 11.7351 4.23771 10.8684 3.2747C10.0016 2.31168 8.80971 1.70287 7.52143 1.56521V0.521729H6.47794V1.56521C5.19324 1.71166 4.00652 2.32308 3.14153 3.28418C2.27655 4.24527 1.79308 5.48962 1.78229 6.7826V9.1826L0.373595 10.5913C0.322672 10.6373 0.282311 10.6937 0.25529 10.7567C0.22827 10.8198 0.215232 10.8879 0.217073 10.9565V12.5217C0.212461 12.5914 0.222796 12.6613 0.247385 12.7267C0.271974 12.7921 0.310249 12.8515 0.359649 12.9009C0.409048 12.9503 0.468431 12.9886 0.533823 13.0131C0.599213 13.0378 0.669103 13.0481 0.738812 13.0435H4.39098C4.39098 13.7354 4.66583 14.3989 5.15505 14.8881C5.64428 15.3773 6.30781 15.6522 6.99968 15.6522C7.69152 15.6522 8.3551 15.3773 8.84428 14.8881C9.33354 14.3989 9.60839 13.7354 9.60839 13.0435H13.2606C13.3303 13.0481 13.4002 13.0378 13.4656 13.0131C13.531 12.9886 13.5903 12.9503 13.6397 12.9009C13.6891 12.8515 13.7274 12.7921 13.752 12.7267C13.7766 12.6613 13.7869 12.5914 13.7823 12.5217V10.9565C13.7841 10.8879 13.7711 10.8198 13.744 10.7567C13.717 10.6937 13.6767 10.6373 13.6258 10.5913ZM6.99968 14.6087C6.58456 14.6087 6.18644 14.4437 5.8929 14.1503C5.59937 13.8567 5.43446 13.4586 5.43446 13.0435H8.56491C8.56491 13.4586 8.39997 13.8567 8.10648 14.1503C7.81291 14.4437 7.41479 14.6087 6.99968 14.6087ZM12.7388 12H1.26055V11.1652L2.66924 9.75651C2.72017 9.71053 2.76053 9.65411 2.78755 9.59109C2.81457 9.52799 2.82761 9.45989 2.82577 9.39129V6.7826C2.82577 5.67561 3.26552 4.61396 4.04828 3.8312C4.83104 3.04843 5.89269 2.60869 6.99968 2.60869C8.10668 2.60869 9.16832 3.04843 9.95107 3.8312C10.7338 4.61396 11.1736 5.67561 11.1736 6.7826V9.39129C11.1717 9.45989 11.1848 9.52799 11.2118 9.59109C11.2389 9.65411 11.2792 9.71053 11.3301 9.75651L12.7388 11.1652V12Z" fill="white"/>
    </g>
    <defs>
        <clipPath id="clip0_13_732">
            <rect width="13.913" height="16" fill="white" transform="translate(0.043457)"/>
        </clipPath>
    </defs>
</svg>
