<svg width="25" height="25" viewBox="0 0 25 25" fill="none" xmlns="http://www.w3.org/2000/svg">
    <path d="M4.54545 7.95455C5.75098 7.95455 6.90714 8.43344 7.75958 9.28588C8.61201 10.1383 9.09091 11.2945 9.09091 12.5C9.09091 13.7055 8.61201 14.8617 7.75958 15.7141C6.90714 16.5666 5.75098 17.0455 4.54545 17.0455C3.33992 17.0455 2.18377 16.5666 1.33133 15.7141C0.478895 14.8617 0 13.7055 0 12.5C0 11.2945 0.478895 10.1383 1.33133 9.28588C2.18377 8.43344 3.33992 7.95455 4.54545 7.95455ZM4.54545 10.2273C3.94269 10.2273 3.36461 10.4667 2.93839 10.8929C2.51217 11.3192 2.27273 11.8972 2.27273 12.5C2.27273 13.1028 2.51217 13.6808 2.93839 14.1071C3.36461 14.5333 3.94269 14.7727 4.54545 14.7727C5.14822 14.7727 5.7263 14.5333 6.15252 14.1071C6.57873 13.6808 6.81818 13.1028 6.81818 12.5C6.81818 11.8972 6.57873 11.3192 6.15252 10.8929C5.7263 10.4667 5.14822 10.2273 4.54545 10.2273ZM12.5 0C13.7055 0 14.8617 0.478895 15.7141 1.33133C16.5666 2.18377 17.0455 3.33992 17.0455 4.54545C17.0455 5.75098 16.5666 6.90714 15.7141 7.75958C14.8617 8.61201 13.7055 9.09091 12.5 9.09091C11.2945 9.09091 10.1383 8.61201 9.28588 7.75958C8.43344 6.90714 7.95455 5.75098 7.95455 4.54545C7.95455 3.33992 8.43344 2.18377 9.28588 1.33133C10.1383 0.478895 11.2945 0 12.5 0ZM12.5 2.27273C11.8972 2.27273 11.3192 2.51217 10.8929 2.93839C10.4667 3.36461 10.2273 3.94269 10.2273 4.54545C10.2273 5.14822 10.4667 5.7263 10.8929 6.15252C11.3192 6.57873 11.8972 6.81818 12.5 6.81818C13.1028 6.81818 13.6808 6.57873 14.1071 6.15252C14.5333 5.7263 14.7727 5.14822 14.7727 4.54545C14.7727 3.94269 14.5333 3.36461 14.1071 2.93839C13.6808 2.51217 13.1028 2.27273 12.5 2.27273ZM12.5 15.9091C13.7055 15.9091 14.8617 16.388 15.7141 17.2404C16.5666 18.0929 17.0455 19.249 17.0455 20.4545C17.0455 21.6601 16.5666 22.8162 15.7141 23.6687C14.8617 24.5211 13.7055 25 12.5 25C11.2945 25 10.1383 24.5211 9.28588 23.6687C8.43344 22.8162 7.95455 21.6601 7.95455 20.4545C7.95455 19.249 8.43344 18.0929 9.28588 17.2404C10.1383 16.388 11.2945 15.9091 12.5 15.9091ZM12.5 18.1818C11.8972 18.1818 11.3192 18.4213 10.8929 18.8475C10.4667 19.2737 10.2273 19.8518 10.2273 20.4545C10.2273 21.0573 10.4667 21.6354 10.8929 22.0616C11.3192 22.4878 11.8972 22.7273 12.5 22.7273C13.1028 22.7273 13.6808 22.4878 14.1071 22.0616C14.5333 21.6354 14.7727 21.0573 14.7727 20.4545C14.7727 19.8518 14.5333 19.2737 14.1071 18.8475C13.6808 18.4213 13.1028 18.1818 12.5 18.1818ZM20.4545 7.95455C21.6601 7.95455 22.8162 8.43344 23.6687 9.28588C24.5211 10.1383 25 11.2945 25 12.5C25 13.7055 24.5211 14.8617 23.6687 15.7141C22.8162 16.5666 21.6601 17.0455 20.4545 17.0455C19.249 17.0455 18.0929 16.5666 17.2404 15.7141C16.388 14.8617 15.9091 13.7055 15.9091 12.5C15.9091 11.2945 16.388 10.1383 17.2404 9.28588C18.0929 8.43344 19.249 7.95455 20.4545 7.95455ZM20.4545 10.2273C19.8518 10.2273 19.2737 10.4667 18.8475 10.8929C18.4213 11.3192 18.1818 11.8972 18.1818 12.5C18.1818 13.1028 18.4213 13.6808 18.8475 14.1071C19.2737 14.5333 19.8518 14.7727 20.4545 14.7727C21.0573 14.7727 21.6354 14.5333 22.0616 14.1071C22.4878 13.6808 22.7273 13.1028 22.7273 12.5C22.7273 11.8972 22.4878 11.3192 22.0616 10.8929C21.6354 10.4667 21.0573 10.2273 20.4545 10.2273Z" fill="white"/>
</svg>
