<svg width="24" height="24" viewBox="0 0 24 24" fill="none" xmlns="http://www.w3.org/2000/svg">
    <path d="M23 12C23 18.0751 18.0751 23 12 23C5.92487 23 1 18.0751 1 12C1 5.92487 5.92487 1 12 1C18.0751 1 23 5.92487 23 12Z" stroke="#FC0505" stroke-width="2" stroke-linecap="round" stroke-linejoin="round"/>
    <path d="M15.5 17.25L12 15.0625L8.5 17.25V7.625C8.5 7.50897 8.54609 7.39769 8.62814 7.31564C8.71019 7.23359 8.82147 7.1875 8.9375 7.1875H15.0625C15.1785 7.1875 15.2898 7.23359 15.3719 7.31564C15.4539 7.39769 15.5 7.50897 15.5 7.625V17.25Z" stroke="#FC0505" stroke-width="2" stroke-linecap="round" stroke-linejoin="round"/>
</svg>
