<svg width="25" height="25" viewBox="0 0 25 25" fill="none" xmlns="http://www.w3.org/2000/svg">
    <path fill-rule="evenodd" clip-rule="evenodd" d="M7.17499 2.88462H17.825C18.5185 2.88467 19.1877 3.1449 19.7054 3.6158C20.2231 4.08669 20.5531 4.73539 20.6326 5.43846L22.1551 18.9C22.2008 19.304 22.1623 19.7133 22.042 20.1011C21.9218 20.4889 21.7226 20.8463 21.4575 21.1499C21.1923 21.4536 20.8673 21.6965 20.5037 21.8629C20.14 22.0293 19.746 22.1154 19.3475 22.1154H5.65248C5.25397 22.1154 4.85998 22.0293 4.49635 21.8629C4.13272 21.6965 3.80767 21.4536 3.54254 21.1499C3.27741 20.8463 3.07819 20.4889 2.95796 20.1011C2.83772 19.7133 2.79919 19.304 2.84488 18.9L4.36739 5.43846C4.44691 4.73539 4.77691 4.08669 5.29459 3.6158C5.81228 3.1449 6.48152 2.88467 7.17499 2.88462ZM1.5598 5.10769C1.71883 3.70156 2.37882 2.40416 3.4142 1.46236C4.44957 0.520564 5.78806 0.000100062 7.17499 0H17.825C19.2119 0.000100062 20.5504 0.520564 21.5858 1.46236C22.6212 2.40416 23.2812 3.70156 23.4402 5.10769L24.9627 18.5692C25.0541 19.3773 24.977 20.1959 24.7366 20.9714C24.4961 21.7469 24.0977 22.4618 23.5674 23.0691C23.0371 23.6763 22.3871 24.1623 21.6598 24.4951C20.9325 24.8279 20.1445 24.9999 19.3475 25H5.65248C4.85547 24.9999 4.06747 24.8279 3.34021 24.4951C2.61295 24.1623 1.96286 23.6763 1.4326 23.0691C0.902346 22.4618 0.503908 21.7469 0.263436 20.9714C0.022965 20.1959 -0.0541041 19.3773 0.0372868 18.5692L1.5598 5.10769ZM6.84712 7.21154C6.84712 6.82901 6.99601 6.46216 7.26104 6.19167C7.52607 5.92119 7.88553 5.76923 8.26034 5.76923C8.63515 5.76923 8.99461 5.92119 9.25964 6.19167C9.52467 6.46216 9.67356 6.82901 9.67356 7.21154V7.69231C9.67356 8.45735 9.97134 9.19107 10.5014 9.73204C11.0315 10.273 11.7504 10.5769 12.5 10.5769C13.2496 10.5769 13.9685 10.273 14.4986 9.73204C15.0287 9.19107 15.3264 8.45735 15.3264 7.69231V7.21154C15.3264 6.82901 15.4753 6.46216 15.7404 6.19167C16.0054 5.92119 16.3649 5.76923 16.7397 5.76923C17.1145 5.76923 17.4739 5.92119 17.739 6.19167C18.004 6.46216 18.1529 6.82901 18.1529 7.21154V7.69231C18.1529 9.2224 17.5573 10.6898 16.4972 11.7718C15.4371 12.8537 13.9992 13.4615 12.5 13.4615C11.0008 13.4615 9.56293 12.8537 8.50281 11.7718C7.44269 10.6898 6.84712 9.2224 6.84712 7.69231V7.21154Z" fill="white"/>
</svg>
