<svg width="14" height="14" viewBox="0 0 14 14" fill="none" xmlns="http://www.w3.org/2000/svg">
    <path d="M7.00002 11.6665C8.2377 11.6665 9.42468 11.1748 10.2999 10.2997C11.175 9.4245 11.6667 8.23751 11.6667 6.99984C11.6667 5.76216 11.175 4.57518 10.2999 3.70001C9.42468 2.82484 8.2377 2.33317 7.00002 2.33317C5.76234 2.33317 4.57536 2.82484 3.70019 3.70001C2.82502 4.57518 2.33335 5.76216 2.33335 6.99984C2.33335 8.23751 2.82502 9.4245 3.70019 10.2997C4.57536 11.1748 5.76234 11.6665 7.00002 11.6665ZM7.00002 1.1665C7.76606 1.1665 8.52461 1.31739 9.23234 1.61054C9.94007 1.90369 10.5831 2.33337 11.1248 2.87505C11.6665 3.41672 12.0962 4.05978 12.3893 4.76752C12.6825 5.47525 12.8334 6.23379 12.8334 6.99984C12.8334 8.54693 12.2188 10.0307 11.1248 11.1246C10.0308 12.2186 8.54712 12.8332 7.00002 12.8332C3.77419 12.8332 1.16669 10.2082 1.16669 6.99984C1.16669 5.45274 1.78127 3.96901 2.87523 2.87505C3.96919 1.78109 5.45292 1.1665 7.00002 1.1665ZM7.29169 4.08317V7.14567L9.91669 8.70317L9.47919 9.42067L6.41669 7.58317V4.08317H7.29169Z" fill="#4C4C4C"/>
</svg>
