<svg width="25" height="25" viewBox="0 0 25 25" fill="none" xmlns="http://www.w3.org/2000/svg">
    <path d="M21.875 10.4167C22.1513 10.4167 22.4163 10.3069 22.6116 10.1116C22.807 9.91621 22.9167 9.65126 22.9167 9.37499V6.24999C22.9167 6.03142 22.8479 5.8184 22.72 5.64115C22.5921 5.46389 22.4116 5.33141 22.2042 5.26249L12.8292 2.13749C12.6155 2.06647 12.3846 2.06647 12.1709 2.13749L2.79587 5.26249C2.58845 5.33141 2.40799 5.46389 2.2801 5.64115C2.15221 5.8184 2.08338 6.03142 2.08337 6.24999V9.37499C2.08337 9.65126 2.19312 9.91621 2.38847 10.1116C2.58382 10.3069 2.84877 10.4167 3.12504 10.4167H4.16671V17.9C3.55909 18.114 3.03262 18.5109 2.6596 19.0361C2.28658 19.5613 2.08529 20.1891 2.08337 20.8333V22.9167C2.08337 23.1929 2.19312 23.4579 2.38847 23.6532C2.58382 23.8486 2.84877 23.9583 3.12504 23.9583H21.875C22.1513 23.9583 22.4163 23.8486 22.6116 23.6532C22.807 23.4579 22.9167 23.1929 22.9167 22.9167V20.8333C22.9148 20.1891 22.7135 19.5613 22.3405 19.0361C21.9675 18.5109 21.441 18.114 20.8334 17.9V10.4167H21.875ZM20.8334 21.875H4.16671V20.8333C4.16698 20.5571 4.27682 20.2924 4.47211 20.0971C4.6674 19.9018 4.93219 19.7919 5.20837 19.7917H19.7917C20.0679 19.7919 20.3327 19.9018 20.528 20.0971C20.7233 20.2924 20.8331 20.5571 20.8334 20.8333V21.875ZM6.25004 17.7083V10.4167H8.33337V17.7083H6.25004ZM10.4167 17.7083V10.4167H14.5834V17.7083H10.4167ZM16.6667 17.7083V10.4167H18.75V17.7083H16.6667ZM4.16671 8.33333V6.99999L12.5 4.22291L20.8334 7.00103V8.33333H4.16671Z" fill="white"/>
</svg>
